# xmcd
#
# Track frame offsets: 
#        150
#        14853
#        25176
#        37712
#        52790
#        63292
#        76064
#        95384
#        109853
#        127011
#        140837
#        153557
#        166082
#        176204
#        189494
#        200243
#        212145
#        232227
#        246744
#        263771
#        274642
#        288690
#        303554
#        315219
#
# Disc length: 4358 seconds
#
# Revision: 0
# Processed by: cddbd v1.5.2PL0 Copyright (c) Steve Scherf et al.
# Submitted via: ExactAudioCopy v1.0b1
#
DISCID=62110418
DTITLE=Various Artist - King of the Road, 
DYEAR=2010
DGENRE=Country
TTITLE0=John Denver - Take Me Home, Country Roads
TTITLE1=Dave Dudley - Six Days On The Roads
TTITLE2=Jonny Hill - 500 Meilen von zu Haus
TTITLE3=Tom Astor - ...und ich bin dein Freund
TTITLE4=The Buchanans - On The Road Again
TTITLE5=Brent Anderson - Distant Drums
TTITLE6=Don Witherspoon - Green, Green Gras Of Home
TTITLE7=Ralf Paulson - Ich sing die alten Western-Songs
TTITLE8=Freddy Quinn - Gib mir ein Zuhaus
TTITLE9=Conway Twitty - Fifteen Years Ago
TTITLE10=Bobby Bare - Detroit City
TTITLE11=Glen Campbell - By The Time I Get To Phoenix
TTITLE12=Peter Held - Gehn wir nochmal den Weg nach Westen
TTITLE13=Truck Stop - Arizona, Arizona
TTITLE14=Steve McGraw - Go West
TTITLE15=Tom Astor - Freunde
TTITLE16=Gunter Gabriel - Er ist ein Kerl (Der 30-Tonner Diesel)
TTITLE17=Louis Nunley - Sixteen Tons
TTITLE18=Bellamy Brothers - Crossfire
TTITLE19=Roger Miller - King Of The Road
TTITLE20=Lee Greenwood - Dixie Road
TTITLE21=Dave Dudley - Deutschland Autobahn
TTITLE22=Jonny Hill - Mehr hinterm Lenkrad als zu Haus
TTITLE23=Peter Hinnen - Im Tal der blaue Berge
EXTD=
EXTT0=
EXTT1=
EXTT2=
EXTT3=
EXTT4=
EXTT5=
EXTT6=
EXTT7=
EXTT8=
EXTT9=
EXTT10=
EXTT11=
EXTT12=
EXTT13=
EXTT14=
EXTT15=
EXTT16=
EXTT17=
EXTT18=
EXTT19=
EXTT20=
EXTT21=
EXTT22=
EXTT23=
PLAYORDER=
